<svg width="604" height="381" viewBox="0 0 604 381" fill="none" xmlns="http://www.w3.org/2000/svg">
<rect width="604" height="381" rx="16" fill="#A00026"/>
<path d="M0 71H604V365C604 373.837 596.837 381 588 381H16C7.16346 381 0 373.837 0 365V71Z" fill="#F4F3F3"/>
<rect x="81" y="20" width="496" height="32" rx="8" fill="#E5E5E5"/>
<rect x="81.5" y="20.5" width="495" height="31" rx="7.5" stroke="black" stroke-opacity="0.04"/>
<rect x="81.5" y="20.5" width="495" height="31" rx="7.5" stroke="black" stroke-opacity="0.04"/>
<rect x="81.5" y="20.5" width="495" height="31" rx="7.5" stroke="black" stroke-opacity="0.25"/>
<rect x="27" y="20" width="41" height="32" rx="8" fill="#E5E5E5"/>
<rect x="27.5" y="20.5" width="40" height="31" rx="7.5" stroke="black" stroke-opacity="0.04"/>
<rect x="27.5" y="20.5" width="40" height="31" rx="7.5" stroke="black" stroke-opacity="0.04"/>
<rect x="27.5" y="20.5" width="40" height="31" rx="7.5" stroke="black" stroke-opacity="0.25"/>
</svg>
