<svg width="388" height="386" viewBox="0 0 388 386" fill="none" xmlns="http://www.w3.org/2000/svg">
<g clip-path="url(#clip0)">
<path d="M62.8119 48.073L79.2499 93.261C79.2144 93.2994 79.1916 93.3476 79.1562 93.386L79.2812 93.761C72.3687 101.295 66.1502 109.609 60.7812 118.667L11.2812 117.324C10.2996 119.548 9.296 121.769 8.4062 124.011C7.1939 127.066 6.0752 130.116 5.0312 133.199C3.9875 136.281 3.002 139.406 2.125 142.511C1.33932 145.293 0.6525 148.061 0 150.855L40.5 177.949C40.4508 178.393 40.4826 178.848 40.4375 179.292L40.7188 179.48C40.2531 184.204 40.0972 188.928 40.0938 193.636H129.031C129.049 190.799 129.282 187.958 129.688 185.167C130.093 182.377 130.688 179.623 131.469 176.917C132.249 174.212 133.201 171.561 134.344 168.98C135.487 166.399 136.82 163.898 138.313 161.48C139.805 159.062 141.452 156.727 143.281 154.511C145.111 152.295 147.127 150.205 149.281 148.23C151.435 146.255 153.722 144.394 156.188 142.699C158.653 141.004 161.298 139.45 164.063 138.074C166.035 137.092 168.01 136.246 170.031 135.48C172.052 134.714 174.101 134.034 176.156 133.48C178.211 132.926 180.27 132.483 182.344 132.136C183.318 131.973 184.305 131.91 185.281 131.792C185.615 131.749 185.947 131.705 186.281 131.667C187.051 131.586 187.824 131.44 188.594 131.386C189.346 131.334 190.092 131.381 190.844 131.355C191.697 131.318 192.55 131.296 193.406 131.292C193.875 131.295 194.345 131.249 194.813 131.261C195.157 131.27 195.5 131.309 195.844 131.324C197.561 131.381 199.281 131.536 201 131.73C208.378 132.564 215.746 134.587 222.75 138.074C244.867 149.084 257.576 170.938 257.719 193.636H346.75C346.749 188.91 346.532 184.159 346.062 179.417L387.062 151.98C387.051 151.927 387.012 151.877 387 151.824C386.288 148.701 385.502 145.585 384.625 142.48C383.748 139.375 382.794 136.281 381.75 133.199C380.706 130.116 379.587 127.066 378.375 124.011C377.495 121.794 376.535 119.582 375.562 117.386L326.438 118.73C326.109 118.175 325.711 117.656 325.375 117.105H325.063C322.655 113.152 320.095 109.33 317.375 105.667C314.655 102.005 311.788 98.4976 308.781 95.136L325.469 49.324C324.019 48.0594 322.578 46.7931 321.094 45.574C318.627 43.5469 316.118 41.5676 313.563 39.6677C311.006 37.7679 308.389 35.9385 305.75 34.1677C303.111 32.397 300.436 30.6827 297.719 29.0427C296.941 28.5736 296.164 28.1151 295.375 27.6677L256.375 57.0117C255.807 56.7628 255.225 56.597 254.656 56.3554L254.563 56.4179C250.257 54.587 245.859 52.9806 241.406 51.5429C236.953 50.1053 232.448 48.8629 227.875 47.8242L227.813 47.6679C227.79 47.663 227.772 47.6416 227.75 47.6367L213.719 1.07466C211.745 0.871049 209.794 0.626209 207.813 0.480909C204.628 0.247389 201.419 0.126509 198.219 0.0434087C196.078 -0.0121643 193.93 0.00510873 191.781 0.0121587C190.706 0.0235727 189.636 -0.0157043 188.563 0.0121587C185.362 0.0952577 182.185 0.247389 179 0.480909C177.987 0.555128 176.979 0.703929 175.969 0.793409L161.969 47.1684C151.81 49.2653 141.898 52.3488 132.375 56.3872L92.9998 26.7932C91.6841 27.547 90.361 28.2592 89.0623 29.0432C86.3454 30.6831 83.6706 32.3976 81.0311 34.1682C78.3918 35.939 75.7745 37.7684 73.2186 39.6682C70.6625 41.5681 68.1546 43.5474 65.6873 45.5745C64.7069 46.3801 63.7757 47.2458 62.8123 48.0745L62.8119 48.073ZM244.592 87.354C245.952 87.4482 247.333 87.8056 248.623 88.4478C253.783 91.0167 255.846 97.2185 253.217 102.26C250.587 107.302 244.252 109.298 239.092 106.729C233.931 104.16 231.869 97.9892 234.498 92.9478C236.47 89.1665 240.512 87.0714 244.592 87.354V87.354ZM95.7119 134.635C97.0716 134.729 98.453 135.087 99.7431 135.729C104.903 138.298 106.966 144.469 104.337 149.51C101.707 154.552 95.3722 156.548 90.2121 153.979C85.0517 151.41 82.9889 145.239 85.6183 140.198C87.5903 136.416 91.6327 134.353 95.7123 134.635H95.7119Z" fill="#828282"/>
<path d="M324.25 337.93L307.813 292.743C307.848 292.704 307.871 292.656 307.906 292.618L307.781 292.243C314.694 284.709 320.912 276.395 326.281 267.336L375.781 268.68C376.763 266.456 377.766 264.235 378.656 261.993C379.868 258.938 380.987 255.888 382.031 252.805C383.075 249.723 384.06 246.598 384.937 243.493C385.723 240.711 386.41 237.943 387.062 235.149L346.562 208.055C346.612 207.611 346.58 207.156 346.625 206.711L346.344 206.524C346.809 201.8 346.965 197.076 346.969 192.368H258.031C258.013 195.205 257.78 198.046 257.375 200.836C256.97 203.627 256.374 206.381 255.594 209.086C254.813 211.792 253.862 214.443 252.719 217.024C251.576 219.605 250.242 222.106 248.75 224.524C247.258 226.942 245.611 229.277 243.781 231.493C241.952 233.708 239.935 235.799 237.781 237.774C235.627 239.749 233.341 241.61 230.875 243.305C228.409 245 225.765 246.554 223 247.93C221.027 248.912 219.052 249.758 217.031 250.524C215.01 251.29 212.961 251.97 210.906 252.524C208.851 253.078 206.793 253.521 204.719 253.868C203.744 254.031 202.758 254.093 201.781 254.211C201.447 254.254 201.116 254.299 200.781 254.336C200.012 254.417 199.238 254.564 198.469 254.618C197.717 254.67 196.97 254.623 196.219 254.649C195.365 254.686 194.513 254.708 193.656 254.711C193.188 254.709 192.718 254.755 192.25 254.743C191.906 254.734 191.563 254.695 191.219 254.68C189.501 254.623 187.782 254.468 186.063 254.274C178.684 253.44 171.316 251.417 164.313 247.93C142.196 236.92 129.486 215.066 129.344 192.368H40.312C40.313 197.094 40.5301 201.845 40.9995 206.586L-0.000488281 234.024C0.0115357 234.077 0.0499577 234.127 0.0620117 234.18C0.774122 237.303 1.56001 240.419 2.43701 243.524C3.31401 246.629 4.26831 249.723 5.31201 252.805C6.35571 255.888 7.47481 258.938 8.68701 261.993C9.56709 264.21 10.5275 266.422 11.4995 268.618L60.6245 267.274C60.953 267.829 61.3512 268.348 61.687 268.899H61.9995C64.4074 272.852 66.9667 276.674 69.687 280.336C72.4073 283.999 75.274 287.506 78.2808 290.868L61.5928 336.68C63.0428 337.945 64.484 339.211 65.9678 340.43C68.4349 342.457 70.943 344.437 73.499 346.336C76.055 348.236 78.6723 350.066 81.3115 351.836C83.9508 353.607 86.6259 355.322 89.3428 356.961C90.12 357.431 90.8979 357.889 91.6865 358.336L130.687 328.993C131.254 329.242 131.836 329.407 132.405 329.649L132.499 329.586C136.804 331.417 141.202 333.024 145.655 334.461C150.108 335.899 154.614 337.142 159.187 338.18L159.249 338.336C159.271 338.341 159.288 338.363 159.312 338.368L173.343 384.93C175.316 385.134 177.268 385.379 179.249 385.524C182.434 385.758 185.642 385.878 188.843 385.961C190.983 386.017 193.132 386 195.28 385.993C196.356 385.981 197.425 386.021 198.499 385.993C201.699 385.91 204.877 385.757 208.062 385.524C209.074 385.45 210.082 385.301 211.093 385.211L225.093 338.836C235.251 336.74 245.164 333.656 254.687 329.618L294.062 359.211C295.377 358.458 296.7 357.746 297.999 356.961C300.716 355.322 303.391 353.607 306.03 351.836C308.67 350.066 311.287 348.236 313.843 346.336C316.399 344.437 318.907 342.457 321.374 340.43C322.354 339.625 323.286 338.759 324.249 337.93H324.25ZM142.47 298.649C141.11 298.555 139.729 298.197 138.439 297.555C133.278 294.986 131.215 288.784 133.845 283.743C136.474 278.701 142.809 276.705 147.97 279.274C153.13 281.843 155.193 288.014 152.564 293.055C150.592 296.837 146.549 298.932 142.47 298.649ZM291.35 251.368C289.99 251.274 288.609 250.916 287.319 250.274C282.158 247.705 280.095 241.534 282.725 236.493C285.354 231.451 291.689 229.455 296.85 232.024C302.01 234.593 304.073 240.763 301.444 245.805C299.471 249.587 295.429 251.65 291.35 251.368Z" fill="#828282"/>
<path d="M193.73 98.7C142.341 98.7 100.399 140.599 100.399 191.989C100.399 243.379 142.341 285.32 193.73 285.32C245.12 285.32 287.02 243.379 287.02 191.989C287.02 140.599 245.12 98.7 193.73 98.7V98.7ZM193.73 120C233.592 120 265.719 152.127 265.719 191.989C265.719 231.851 233.592 264.019 193.73 264.019C153.868 264.019 121.7 231.851 121.7 191.989C121.7 152.127 153.868 120 193.73 120Z" fill="#828282"/>
<path d="M193.73 101.83C144.047 101.83 103.567 142.309 103.567 191.993C103.567 241.677 144.047 282.156 193.73 282.156C243.414 282.156 283.852 241.677 283.852 191.993C283.852 142.309 243.414 101.83 193.73 101.83V101.83ZM193.73 116.836C235.298 116.836 268.887 150.425 268.887 191.993C268.887 233.561 235.298 267.15 193.73 267.15C152.162 267.15 118.574 233.561 118.574 191.993C118.574 150.425 152.162 116.836 193.73 116.836V116.836Z" fill="#828282"/>
</g>
<defs>
<clipPath id="clip0">
<rect width="387.06" height="386" fill="white"/>
</clipPath>
</defs>
</svg>
